<svg width="16" height="17" viewBox="0 0 16 17" fill="none" xmlns="http://www.w3.org/2000/svg">
<mask id="mask0_9_62" style="mask-type:alpha" maskUnits="userSpaceOnUse" x="0" y="0" width="16" height="17">
<rect y="0.0112305" width="16" height="16" fill="#D9D9D9"/>
</mask>
<g mask="url(#mask0_9_62)">
<path d="M7.99998 14.6779C7.07776 14.6779 6.21109 14.5029 5.39998 14.1529C4.58887 13.8029 3.88331 13.3279 3.28331 12.7279C2.68331 12.1279 2.20831 11.4224 1.85831 10.6113C1.50831 9.80016 1.33331 8.93349 1.33331 8.01127C1.33331 7.08905 1.50831 6.22238 1.85831 5.41127C2.20831 4.60016 2.68331 3.8946 3.28331 3.2946C3.88331 2.6946 4.58887 2.2196 5.39998 1.8696C6.21109 1.5196 7.07776 1.3446 7.99998 1.3446C8.9222 1.3446 9.78887 1.5196 10.6 1.8696C11.4111 2.2196 12.1166 2.6946 12.7166 3.2946C13.3166 3.8946 13.7916 4.60016 14.1416 5.41127C14.4916 6.22238 14.6666 7.08905 14.6666 8.01127C14.6666 8.93349 14.4916 9.80016 14.1416 10.6113C13.7916 11.4224 13.3166 12.1279 12.7166 12.7279C12.1166 13.3279 11.4111 13.8029 10.6 14.1529C9.78887 14.5029 8.9222 14.6779 7.99998 14.6779ZM7.99998 13.3446C9.48887 13.3446 10.75 12.8279 11.7833 11.7946C12.8166 10.7613 13.3333 9.50016 13.3333 8.01127C13.3333 6.52238 12.8166 5.26127 11.7833 4.22794C10.75 3.1946 9.48887 2.67794 7.99998 2.67794C6.51109 2.67794 5.24998 3.1946 4.21665 4.22794C3.18331 5.26127 2.66665 6.52238 2.66665 8.01127C2.66665 9.50016 3.18331 10.7613 4.21665 11.7946C5.24998 12.8279 6.51109 13.3446 7.99998 13.3446Z" fill="#1C1B1F"/>
</g>
</svg>
