<svg width="42" height="42" viewBox="0 0 42 42" fill="none" xmlns="http://www.w3.org/2000/svg">
<mask id="mask0_1_143" style="mask-type:alpha" maskUnits="userSpaceOnUse" x="0" y="0" width="42" height="42">
<rect width="42" height="42" fill="#D9D9D9"/>
</mask>
<g mask="url(#mask0_1_143)">
<path d="M21 20.4611C19.3156 20.4611 17.8737 19.8614 16.6742 18.6619C15.4747 17.4625 14.875 16.0205 14.875 14.3362C14.875 12.6518 15.4747 11.2099 16.6742 10.0105C17.8737 8.81098 19.3156 8.21124 21 8.21124C22.6843 8.21124 24.1262 8.81098 25.3257 10.0105C26.5252 11.2099 27.1249 12.6518 27.1249 14.3362C27.1249 16.0205 26.5252 17.4625 25.3257 18.6619C24.1262 19.8614 22.6843 20.4611 21 20.4611ZM7.875 33.788V29.8977C7.875 29.0406 8.10778 28.247 8.57334 27.5167C9.03887 26.7864 9.66089 26.225 10.4394 25.8323C12.1692 24.9843 13.9142 24.3482 15.6743 23.9242C17.4344 23.5002 19.2096 23.2881 21 23.2881C22.7903 23.2881 24.5656 23.5002 26.3256 23.9242C28.0857 24.3482 29.8307 24.9843 31.5605 25.8323C32.339 26.225 32.961 26.7864 33.4266 27.5167C33.8921 28.247 34.1249 29.0406 34.1249 29.8977V33.788H7.875ZM10.5 31.1631H31.5V29.8977C31.5 29.5432 31.3973 29.2151 31.192 28.9133C30.9867 28.6115 30.708 28.3653 30.3557 28.1746C28.848 27.432 27.3107 26.8694 25.7437 26.4868C24.1767 26.1043 22.5954 25.9131 21 25.9131C19.4045 25.9131 17.8232 26.1043 16.2562 26.4868C14.6892 26.8694 13.1519 27.432 11.6442 28.1746C11.2919 28.3653 11.0132 28.6115 10.8079 28.9133C10.6026 29.2151 10.5 29.5432 10.5 29.8977V31.1631ZM21 17.8362C21.9625 17.8362 22.7864 17.4935 23.4718 16.8081C24.1572 16.1227 24.5 15.2987 24.5 14.3362C24.5 13.3737 24.1572 12.5497 23.4718 11.8643C22.7864 11.1789 21.9625 10.8362 21 10.8362C20.0375 10.8362 19.2135 11.1789 18.5281 11.8643C17.8427 12.5497 17.5 13.3737 17.5 14.3362C17.5 15.2987 17.8427 16.1227 18.5281 16.8081C19.2135 17.4935 20.0375 17.8362 21 17.8362Z" fill="white"/>
</g>
</svg>
