<svg width="24" height="24" viewBox="0 0 24 24" fill="none" xmlns="http://www.w3.org/2000/svg">
<mask id="mask0_1_104" style="mask-type:alpha" maskUnits="userSpaceOnUse" x="0" y="0" width="24" height="24">
<rect width="24" height="24" transform="matrix(-1 0 0 1 24 0)" fill="#D9D9D9"/>
</mask>
<g mask="url(#mask0_1_104)">
<path d="M16.2895 10.4433C16.0575 10.4433 15.8598 10.3616 15.6965 10.1982C15.5331 10.0349 15.4514 9.83721 15.4514 9.60523C15.4514 9.37325 15.5331 9.17558 15.6965 9.01222C15.8598 8.84886 16.0575 8.76718 16.2895 8.76718C16.5215 8.76718 16.7191 8.84886 16.8825 9.01222C17.0458 9.17558 17.1275 9.37325 17.1275 9.60523C17.1275 9.83721 17.0458 10.0349 16.8825 10.1982C16.7191 10.3616 16.5215 10.4433 16.2895 10.4433ZM12.5 10.4433C12.268 10.4433 12.0704 10.3616 11.907 10.1982C11.7436 10.0349 11.662 9.83721 11.662 9.60523C11.662 9.37325 11.7436 9.17558 11.907 9.01222C12.0704 8.84886 12.268 8.76718 12.5 8.76718C12.732 8.76718 12.9296 8.84886 13.093 9.01222C13.2564 9.17558 13.338 9.37325 13.338 9.60523C13.338 9.83721 13.2564 10.0349 13.093 10.1982C12.9296 10.3616 12.732 10.4433 12.5 10.4433ZM8.71052 10.4433C8.47854 10.4433 8.28087 10.3616 8.11751 10.1982C7.95415 10.0349 7.87247 9.83721 7.87247 9.60523C7.87247 9.37325 7.95415 9.17558 8.11751 9.01222C8.28087 8.84886 8.47854 8.76718 8.71052 8.76718C8.9425 8.76718 9.14016 8.84886 9.30352 9.01222C9.46688 9.17558 9.54856 9.37325 9.54856 9.60523C9.54856 9.83721 9.46688 10.0349 9.30352 10.1982C9.14016 10.3616 8.9425 10.4433 8.71052 10.4433ZM21.5 20.0627V4.21253C21.5 3.73398 21.3342 3.32892 21.0026 2.99734C20.6711 2.66576 20.266 2.49997 19.7874 2.49997H5.21256C4.73401 2.49997 4.32895 2.66576 3.99737 2.99734C3.66579 3.32892 3.5 3.73398 3.5 4.21253V14.9979C3.5 15.4765 3.66579 15.8815 3.99737 16.2131C4.32895 16.5447 4.73401 16.7105 5.21256 16.7105H18.1478L21.5 20.0627ZM18.7526 15.2895H5.21256C5.13968 15.2895 5.07286 15.2591 5.01212 15.1984C4.9514 15.1376 4.92103 15.0708 4.92103 14.9979V4.21253C4.92103 4.13965 4.9514 4.07283 5.01212 4.01209C5.07286 3.95137 5.13968 3.921 5.21256 3.921H19.7874C19.8603 3.921 19.9271 3.95137 19.9879 4.01209C20.0486 4.07283 20.079 4.13965 20.079 4.21253V16.6012L18.7526 15.2895Z" fill="white"/>
</g>
</svg>
