<svg width="40" height="46" viewBox="0 0 40 46" fill="none" xmlns="http://www.w3.org/2000/svg">
<path d="M3.1341 3.38153V17.3106V17.2542V39.4512V3.38153ZM7.83525 25.3615H15.2484C15.5086 24.7141 15.8114 24.1122 16.1568 23.5557C16.5023 22.9993 16.8907 22.474 17.3222 21.9799H7.83525V25.3615ZM7.83525 34.3789H14.1677C14.0472 33.8153 13.9675 33.2517 13.9285 32.6881C13.8898 32.1245 13.8919 31.5609 13.9347 30.9973H7.83525V34.3789ZM3.77711 42.8327C2.72162 42.8327 1.82823 42.4382 1.09694 41.6492C0.365645 40.8601 0 39.8962 0 38.7574V4.0753C0 2.93648 0.365645 1.97256 1.09694 1.18353C1.82823 0.394512 2.72162 0 3.77711 0H20.3717L31.341 11.8353V18.0562C30.8399 17.8424 30.3282 17.6799 29.8058 17.5687C29.2835 17.4575 28.7505 17.3715 28.2069 17.3106V13.5261H18.8046V3.38153H3.77711C3.61623 3.38153 3.46893 3.45385 3.33521 3.59851C3.20114 3.74279 3.1341 3.90172 3.1341 4.0753V38.7574C3.1341 38.931 3.20114 39.0899 3.33521 39.2342C3.46893 39.3788 3.61623 39.4512 3.77711 39.4512H16.1046C16.5144 40.1218 16.9738 40.741 17.4825 41.3087C17.9917 41.8768 18.5434 42.3848 19.1379 42.8327H3.77711ZM27.1622 37.5434C28.7185 37.5434 30.0316 36.9661 31.1018 35.8115C32.1719 34.6569 32.7069 33.24 32.7069 31.5609C32.7069 29.8818 32.1719 28.4649 31.1018 27.3103C30.0316 26.1557 28.7185 25.5784 27.1622 25.5784C25.6059 25.5784 24.2928 26.1557 23.2226 27.3103C22.1525 28.4649 21.6175 29.8818 21.6175 31.5609C21.6175 33.24 22.1525 34.6569 23.2226 35.8115C24.2928 36.9661 25.6059 37.5434 27.1622 37.5434ZM37.8181 45.4122L32.0963 39.2387C31.3918 39.7936 30.6198 40.2135 29.7802 40.4983C28.9403 40.7827 28.0676 40.9249 27.1622 40.9249C24.7514 40.9249 22.7022 40.0146 21.0147 38.1938C19.3271 36.373 18.4834 34.1621 18.4834 31.5609C18.4834 28.9598 19.3271 26.7488 21.0147 24.9281C22.7022 23.1073 24.7514 22.1969 27.1622 22.1969C29.573 22.1969 31.6222 23.1073 33.3097 24.9281C34.9973 26.7488 35.841 28.9598 35.841 31.5609C35.841 32.5378 35.7092 33.4794 35.4456 34.3856C35.1817 35.2915 34.7925 36.1245 34.2782 36.8846L40 43.0581L37.8181 45.4122Z" fill="white"/>
</svg>
