<svg width="39" height="47" viewBox="0 0 39 47" fill="none" xmlns="http://www.w3.org/2000/svg">
<path d="M3.71064 42.0789C2.68707 42.0789 1.81264 41.6878 1.08738 40.9057C0.362461 40.1232 0 39.1797 0 38.0753V8.43294C0 7.32856 0.362461 6.3851 1.08738 5.60258C1.81264 4.82043 2.68707 4.42936 3.71064 4.42936H12.8449C12.9738 3.19984 13.4713 2.15433 14.3371 1.29282C15.2026 0.430938 16.2394 0 17.4474 0C18.6683 0 19.7118 0.430938 20.5776 1.29282C21.4435 2.15433 21.9343 3.19984 22.0499 4.42936H31.1841C32.2077 4.42936 33.0821 4.82043 33.8074 5.60258C34.5323 6.3851 34.8947 7.32856 34.8947 8.43294V22.4408C34.3894 22.2079 33.8835 22.0106 33.3768 21.8489C32.8702 21.6869 32.3498 21.5577 31.8158 21.4613V8.43294C31.8158 8.26241 31.7499 8.10628 31.6182 7.96454C31.4869 7.82243 31.3421 7.75138 31.1841 7.75138H3.71064C3.55259 7.75138 3.40788 7.82243 3.27651 7.96454C3.1448 8.10628 3.07895 8.26241 3.07895 8.43294V38.0753C3.07895 38.2458 3.1448 38.402 3.27651 38.5437C3.40788 38.6858 3.55259 38.7569 3.71064 38.7569H15.7344C15.8107 39.37 15.9238 39.9499 16.0736 40.4965C16.2238 41.0432 16.4067 41.5706 16.6222 42.0789H3.71064ZM3.07895 38.7569V7.75138V21.4613V21.2952V38.7569ZM7.69737 33.5181H15.9433C16.0329 32.9419 16.1658 32.3804 16.342 31.8338C16.5186 31.2871 16.7106 30.7414 16.9183 30.1966H7.69737V33.5181ZM7.69737 24.9151H20.7121C21.5961 24.106 22.5394 23.4282 23.5421 22.8815C24.5449 22.3349 25.6186 21.9465 26.7632 21.7166V21.5931H7.69737V24.9151ZM7.69737 16.3117H27.1974V12.9902H7.69737V16.3117ZM17.4474 6.30353C17.8921 6.30353 18.2599 6.14666 18.5507 5.83291C18.8414 5.51916 18.9868 5.12237 18.9868 4.64252C18.9868 4.16267 18.8414 3.76588 18.5507 3.45213C18.2599 3.13838 17.8921 2.98151 17.4474 2.98151C17.0026 2.98151 16.6349 3.13838 16.3441 3.45213C16.0533 3.76588 15.9079 4.16267 15.9079 4.64252C15.9079 5.12237 16.0533 5.51916 16.3441 5.83291C16.6349 6.14666 17.0026 6.30353 17.4474 6.30353ZM29.7632 46.6362C27.2001 46.6362 25.0199 45.6665 23.2224 43.7272C21.425 41.7879 20.5263 39.4355 20.5263 36.6701C20.5263 33.9047 21.425 31.5523 23.2224 29.613C25.0199 27.6737 27.2001 26.704 29.7632 26.704C32.3262 26.704 34.5065 27.6737 36.3039 29.613C38.1013 31.5523 39 33.9047 39 36.6701C39 39.4355 38.1013 41.7879 36.3039 43.7272C34.5065 45.6665 32.3262 46.6362 29.7632 46.6362ZM28.8554 43.1862H30.6709V37.6495H35.8025V35.6907H30.6709V30.154H28.8554V35.6907H23.7238V37.6495H28.8554V43.1862Z" fill="white"/>
</svg>
