<svg width="36" height="36" viewBox="0 0 36 36" fill="none" xmlns="http://www.w3.org/2000/svg">
<mask id="mask0_28_20" style="mask-type:alpha" maskUnits="userSpaceOnUse" x="0" y="0" width="36" height="36">
<rect x="0.265015" y="0.5" width="35" height="35" fill="#D9D9D9"/>
</mask>
<g mask="url(#mask0_28_20)">
<path d="M17.765 32.5833C15.7477 32.5833 13.8518 32.2005 12.0775 31.4349C10.3032 30.6692 8.75983 29.6302 7.44733 28.3177C6.13483 27.0052 5.09576 25.4618 4.33014 23.6875C3.56451 21.9132 3.1817 20.0173 3.1817 18C3.1817 15.9826 3.56451 14.0868 4.33014 12.3125C5.09576 10.5382 6.13483 8.99475 7.44733 7.68225C8.75983 6.36975 10.3032 5.33069 12.0775 4.56506C13.8518 3.79944 15.7477 3.41663 17.765 3.41663C19.7824 3.41663 21.6782 3.79944 23.4525 4.56506C25.2268 5.33069 26.7702 6.36975 28.0827 7.68225C29.3952 8.99475 30.4343 10.5382 31.1999 12.3125C31.9656 14.0868 32.3484 15.9826 32.3484 18C32.3484 20.0173 31.9656 21.9132 31.1999 23.6875C30.4343 25.4618 29.3952 27.0052 28.0827 28.3177C26.7702 29.6302 25.2268 30.6692 23.4525 31.4349C21.6782 32.2005 19.7824 32.5833 17.765 32.5833ZM17.765 29.6666C21.022 29.6666 23.7807 28.5364 26.0411 26.276C28.3015 24.0156 29.4317 21.2569 29.4317 18C29.4317 14.743 28.3015 11.9843 26.0411 9.72392C23.7807 7.4635 21.022 6.33329 17.765 6.33329C14.5081 6.33329 11.7494 7.4635 9.48899 9.72392C7.22858 11.9843 6.09837 14.743 6.09837 18C6.09837 21.2569 7.22858 24.0156 9.48899 26.276C11.7494 28.5364 14.5081 29.6666 17.765 29.6666Z" fill="white"/>
</g>
</svg>
