<svg width="14" height="15" viewBox="0 0 14 15" fill="none" xmlns="http://www.w3.org/2000/svg">
<mask id="mask0_1_50" style="mask-type:alpha" maskUnits="userSpaceOnUse" x="0" y="0" width="14" height="15">
<rect y="0.5" width="14" height="14" fill="#D9D9D9"/>
</mask>
<g mask="url(#mask0_1_50)">
<path d="M7 13.3333C6.19305 13.3333 5.43472 13.1802 4.725 12.874C4.01528 12.5677 3.39791 12.1521 2.87291 11.6271C2.34791 11.1021 1.93229 10.4847 1.62604 9.775C1.31979 9.06528 1.16666 8.30694 1.16666 7.5C1.16666 6.69305 1.31979 5.93472 1.62604 5.225C1.93229 4.51528 2.34791 3.89791 2.87291 3.37291C3.39791 2.84791 4.01528 2.43229 4.725 2.12604C5.43472 1.81979 6.19305 1.66666 7 1.66666C7.63194 1.66666 8.22986 1.75903 8.79375 1.94375C9.35764 2.12847 9.87778 2.38611 10.3542 2.71666L9.50833 3.57708C9.13889 3.34375 8.74514 3.16146 8.32708 3.03021C7.90903 2.89896 7.46666 2.83333 7 2.83333C5.70694 2.83333 4.6059 3.28784 3.69687 4.19687C2.78784 5.1059 2.33333 6.20694 2.33333 7.5C2.33333 8.79305 2.78784 9.8941 3.69687 10.8031C4.6059 11.7122 5.70694 12.1667 7 12.1667C8.29305 12.1667 9.3941 11.7122 10.3031 10.8031C11.2122 9.8941 11.6667 8.79305 11.6667 7.5C11.6667 7.325 11.6569 7.15 11.6375 6.975C11.6181 6.8 11.5889 6.62986 11.55 6.46458L12.4979 5.51666C12.6049 5.82778 12.6875 6.14861 12.7458 6.47916C12.8042 6.80972 12.8333 7.15 12.8333 7.5C12.8333 8.30694 12.6802 9.06528 12.374 9.775C12.0677 10.4847 11.6521 11.1021 11.1271 11.6271C10.6021 12.1521 9.98472 12.5677 9.275 12.874C8.56528 13.1802 7.80694 13.3333 7 13.3333ZM6.18333 10.1833L3.70416 7.70416L4.52083 6.8875L6.18333 8.55L12.0167 2.70208L12.8333 3.51875L6.18333 10.1833Z" fill="#4B0FFF"/>
</g>
</svg>
