<svg width="14" height="15" viewBox="0 0 14 15" fill="none" xmlns="http://www.w3.org/2000/svg">
<mask id="mask0_1_44" style="mask-type:alpha" maskUnits="userSpaceOnUse" x="0" y="0" width="14" height="15">
<rect y="0.5" width="14" height="14" fill="#D9D9D9"/>
</mask>
<g mask="url(#mask0_1_44)">
<path d="M7 13.3333C6.19306 13.3333 5.43472 13.1802 4.725 12.874C4.01528 12.5677 3.39792 12.1521 2.87292 11.6271C2.34792 11.1021 1.93229 10.4847 1.62604 9.775C1.31979 9.06528 1.16667 8.30694 1.16667 7.5C1.16667 6.69305 1.31979 5.93472 1.62604 5.225C1.93229 4.51528 2.34792 3.89791 2.87292 3.37291C3.39792 2.84791 4.01528 2.43229 4.725 2.12604C5.43472 1.81979 6.19306 1.66666 7 1.66666C7.80694 1.66666 8.56528 1.81979 9.275 2.12604C9.98472 2.43229 10.6021 2.84791 11.1271 3.37291C11.6521 3.89791 12.0677 4.51528 12.374 5.225C12.6802 5.93472 12.8333 6.69305 12.8333 7.5C12.8333 8.30694 12.6802 9.06528 12.374 9.775C12.0677 10.4847 11.6521 11.1021 11.1271 11.6271C10.6021 12.1521 9.98472 12.5677 9.275 12.874C8.56528 13.1802 7.80694 13.3333 7 13.3333ZM7 12.1667C8.30278 12.1667 9.40625 11.7146 10.3104 10.8104C11.2146 9.90625 11.6667 8.80278 11.6667 7.5C11.6667 6.19722 11.2146 5.09375 10.3104 4.18958C9.40625 3.28541 8.30278 2.83333 7 2.83333C5.69722 2.83333 4.59375 3.28541 3.68958 4.18958C2.78542 5.09375 2.33333 6.19722 2.33333 7.5C2.33333 8.80278 2.78542 9.90625 3.68958 10.8104C4.59375 11.7146 5.69722 12.1667 7 12.1667Z" fill="#4B0FFF"/>
</g>
</svg>
